{
  "accessors": [
    {
      "bufferView": 0,
      "byteOffset": 0,
      "componentType": 5123,
      "count": 7305,
      "max": [
        1754
      ],
      "min": [
        0
      ],
      "type": "SCALAR"
    },
    {
      "bufferView": 1,
      "byteOffset": 0,
      "componentType": 5126,
      "count": 1755,
      "max": [
        6797.3115234375,
        266.96923828125,
        -1323.0081787109375
      ],
      "min": [
        1537.024169921875,
        189.4209747314453,
        -6611.45654296875
      ],
      "type": "VEC3"
    },
    {
      "bufferView": 2,
      "byteOffset": 0,
      "componentType": 5126,
      "count": 1755,
      "max": [
        0.995750904083252,
        0.99609375
      ],
      "min": [
        0.013038258999586105,
        0.011671841144561768
      ],
      "type": "VEC2"
    }
  ],
  "asset": {
    "generator": "Agisoft Metashape",
    "version": "2.0"
  },
  "bufferViews": [
    {
      "buffer": 0,
      "byteLength": 14612,
      "byteOffset": 0,
      "target": 34963
    },
    {
      "buffer": 0,
      "byteLength": 21060,
      "byteOffset": 14612,
      "target": 34962
    },
    {
      "buffer": 0,
      "byteLength": 14040,
      "byteOffset": 35672,
      "target": 34962
    }
  ],
  "buffers": [
    {
      "uri": "a_data.bin",
      "byteLength": 49712
    }
  ],
  "images": [
    {
      "uri": "a_img0.jpg"
    }
  ],
  "materials": [
    {
      "pbrMetallicRoughness": {
        "baseColorTexture": {
          "index": 0
        },
        "metallicFactor": 0,
        "roughnessFactor": 1
      }
    }
  ],
  "meshes": [
    {
      "primitives": [
        {
          "attributes": {
            "POSITION": 1,
            "TEXCOORD_0": 2
          },
          "indices": 0,
          "material": 0,
          "mode": 4
        }
      ]
    }
  ],
  "nodes": [
    {
      "mesh": 0
    }
  ],
  "samplers": [
    {
      "minFilter": 9729
    }
  ],
  "scene": 0,
  "scenes": [
    {
      "nodes": [
        0
      ]
    }
  ],
  "textures": [
    {
      "sampler": 0,
      "source": 0
    }
  ]
}